#!OML:ASF X:\für Bonn\!DataBase\2005_08_11_Bastian_Final\c3d\Bastian.ASF
:FULLY-SPECIFIED
:DEGREES
153
root 4.33167 17.1881 -19.6241 146.229 12.7227 -183.835
lowerback 14.4544 -2.39159 -2.47906
upperback 13.6408 -0.717928 -4.66954
thorax 6.53326 0.803244 -3.39985
lowerneck 8.57161 -3.79383 -11.5803
upperneck -2.20252 -5.60058 13.9023
head -1.32095 -3.04569 6.30426
rclavicle 3.74212e-014 3.49861e-014
rhumerus -64.0049 10.0488 -97.8086
rradius 105.833
rwrist 12.8597
rhand -18.3453 6.59656
rfingers 7.12502
rthumb 7.93711 -23.2344
lclavicle 3.74212e-014 3.49861e-014
lhumerus -34.6816 -6.47552 69.3009
lradius 59.4969
lwrist 32.6641
lhand -9.43225 -32.8751
lfingers 7.12502
lthumb 16.5303 -3.55923
rfemur 11.6434 1.75586 21.4015
rtibia 42.3225
rfoot -7.78472 -0.522833
rtoes 9.87841
lfemur -4.97778 0.169761 -10.5873
ltibia 84.6529
lfoot 10.238 1.06228
ltoes -38.5476
154
root 4.28837 17.1867 -19.5817 146.762 13.2835 -183.752
lowerback 14.0275 -2.50517 -2.64239
upperback 13.3773 -1.02506 -4.4849
thorax 6.45214 0.559855 -3.08922
lowerneck 8.12903 -3.54056 -11.1122
upperneck -2.19836 -5.18573 13.571
head -1.32283 -2.82036 6.10367
rclavicle -3.32964e-015 4.21423e-014
rhumerus -63.3441 10.3089 -97.8998
rradius 105.619
rwrist 12.7927
rhand -18.0203 6.7145
rfingers 7.12502
rthumb 8.25075 -23.1044
lclavicle -3.32964e-015 4.21423e-014
lhumerus -34.358 -6.5214 68.8228
lradius 61.1095
lwrist 32.7716
lhand -9.27366 -33.0735
lfingers 7.12502
lthumb 16.683 -3.77038
rfemur 10.7448 1.81868 21.4229
rtibia 42.4926
rfoot -7.78187 -0.0321506
rtoes 10.0967
lfemur -2.89974 0.0833559 -10.5888
ltibia 83.372
lfoot 9.34206 2.22635
ltoes -37.4097
155
root 4.24356 17.1834 -19.5356 147.283 13.8409 -183.642
lowerback 13.6324 -2.63342 -2.82086
upperback 13.1354 -1.34101 -4.27766
thorax 6.38588 0.316356 -2.74819
lowerneck 7.67967 -3.27358 -10.6387
upperneck -2.20982 -4.75688 13.2053
head -1.32728 -2.58833 5.89196
rclavicle 4.63914e-014 4.92986e-014
rhumerus -62.6574 10.5807 -98.0011
rradius 105.408
rwrist 12.7292
rhand -17.7387 6.86677
rfingers 7.12502
rthumb 8.52255 -22.9412
lclavicle 4.63914e-014 4.92986e-014
lhumerus -34.0159 -6.47948 68.4637
lradius 62.7381
lwrist 32.7413
lhand -9.40989 -33.2716
lfingers 7.12502
lthumb 16.5518 -3.95756
rfemur 9.83971 1.90569 21.4975
rtibia 42.699
rfoot -7.7739 0.399424
rtoes 10.4783
lfemur -0.935602 0.0869848 -10.53
ltibia 82.0937
lfoot 8.53529 3.25231
ltoes -36.6196
156
root 4.19724 17.1798 -19.486 147.784 14.3713 -183.542
lowerback 13.2965 -2.7649 -3.05494
upperback 12.8867 -1.66041 -4.06081
thorax 6.29013 0.0710055 -2.36759
lowerneck 7.23248 -3.0007 -10.1616
upperneck -2.19324 -4.32585 12.8378
head -1.32051 -2.35552 5.6795
rclavicle 5.89521e-014 2.70347e-014
rhumerus -61.9933 10.8268 -98.1421
rradius 105.186
rwrist 12.7601
rhand -17.5475 7.05598
rfingers 7.12502
rthumb 8.707 -22.7444
lclavicle 5.89521e-014 2.70347e-014
lhumerus -33.7071 -6.27788 68.2039
lradius 64.3831
lwrist 32.5608
lhand -9.64361 -33.4314
lfingers 7.12502
lthumb 16.3268 -4.09867
rfemur 8.93663 2.06576 21.5939
rtibia 42.9162
rfoot -7.74269 0.736518
rtoes 10.8286
lfemur 0.92575 0.134227 -10.481
ltibia 80.8082
lfoot 7.87484 4.14292
ltoes -35.8973
157
root 4.14813 17.1683 -19.4318 148.313 14.8785 -183.395
lowerback 12.9832 -2.8993 -3.22229
upperback 12.6395 -1.96997 -3.85115
thorax 6.18745 -0.158901 -2.03466
lowerneck 6.81906 -2.73981 -9.63477
upperneck -2.21234 -3.90941 12.4752
head -1.32516 -2.13207 5.46269
rclavicle -1.19519e-014 -4.96962e-014
rhumerus -61.3334 11.0047 -98.3577
rradius 104.967
rwrist 12.8256
rhand -17.4435 7.21367
rfingers 7.12502
rthumb 8.80737 -22.5826
lclavicle -1.19519e-014 -4.96962e-014
lhumerus -33.3533 -6.05196 68.0066
lradius 66.059
lwrist 32.2056
lhand -9.97659 -33.4717
lfingers 7.12502
lthumb 16.0062 -4.11295
rfemur 7.97615 2.22745 21.7391
rtibia 43.1526
rfoot -7.67382 1.00857
rtoes 11.1409
lfemur 2.6334 0.257869 -10.3411
ltibia 79.5596
lfoot 7.4337 4.77179
ltoes -35.3998
158
root 4.09874 17.1624 -19.3728 148.821 15.3543 -183.265
lowerback 12.7342 -3.02427 -3.42686
upperback 12.3878 -2.26347 -3.64034
thorax 6.05392 -0.378299 -1.6813
lowerneck 6.39448 -2.48609 -9.18666
upperneck -2.20287 -3.51178 12.1822
head -1.31108 -1.91858 5.28119
rclavicle 9.38947e-014 3.4191e-014
rhumerus -60.7216 11.1825 -98.5763
rradius 104.807
rwrist 12.8992
rhand -17.3984 7.3315
rfingers 7.12502
rthumb 8.85091 -22.4629
lclavicle 9.38947e-014 3.4191e-014
lhumerus -32.9319 -5.65408 67.8843
lradius 67.7209
lwrist 31.7171
lhand -10.2576 -33.4366
lfingers 7.12502
lthumb 15.7356 -4.05627
rfemur 7.03358 2.41858 21.8792
rtibia 43.3742
rfoot -7.59975 1.2375
rtoes 11.3835
lfemur 4.2815 0.427534 -10.2005
ltibia 78.2877
lfoot 7.24456 5.21471
ltoes -34.4202
